<?xml version="1.0" encoding="utf-8"?>
<!-- Generator: Adobe Illustrator 26.2.1, SVG Export Plug-In . SVG Version: 6.00 Build 0)  -->
<svg version="1.1" id="rawgraphs-icons" xmlns="http://www.w3.org/2000/svg" xmlns:xlink="http://www.w3.org/1999/xlink" x="0px"
	 y="0px" viewBox="0 0 56 56" style="enable-background:new 0 0 56 56;" xml:space="preserve">
<style type="text/css">
	.st0{fill:none;stroke:#06C26C;stroke-width:0.2091;stroke-miterlimit:10;}
	.st1{fill:#95E5C0;}
	.st2{fill:#06C26C;}
</style>
<circle class="st0" cx="28.2" cy="27.5" r="8.5"/>
<circle class="st0" cx="28.2" cy="27.5" r="13.6"/>
<circle class="st0" cx="28.2" cy="27.5" r="18.8"/>
<circle class="st0" cx="28.2" cy="27.5" r="8.5"/>
<circle class="st0" cx="28.2" cy="27.5" r="13.6"/>
<circle class="st0" cx="28.2" cy="27.5" r="18.8"/>
<path class="st1" d="M26,10.4v3.8c0.8-0.1,1.5-0.2,2.2-0.2c0.7,0,1.4,0.1,2.2,0.2v-3.8c-0.7-0.1-1.4-0.2-2.2-0.2S26.8,10.3,26,10.4z
	"/>
<path class="st1" d="M19.5,22.4l-3-1c-0.7,1.3-1.1,2.7-1.3,4.2l3,1C18.2,25,18.7,23.6,19.5,22.4z"/>
<path class="st1" d="M14.3,42.9c1.1,1,2.3,1.8,3.5,2.6l1.9-2.6c-1.2-0.7-2.4-1.6-3.5-2.6L14.3,42.9z"/>
<path class="st1" d="M37.8,37c-1,1-2.2,1.9-3.5,2.6l2.2,3.1l2,2.8c1.3-0.7,2.4-1.6,3.5-2.6l-2.1-2.8L37.8,37z"/>
<path class="st1" d="M41.3,25.5l3.9-1.3c-0.3-1.5-0.7-2.8-1.4-4.1L40,21.4l-3,1c0.8,1.3,1.2,2.7,1.4,4.1L41.3,25.5z"/>
<path class="st2" d="M18.6,26.7l5.9,1.9l0.1-0.2c-0.1-0.3-0.1-0.6-0.1-0.9c0-1.2,0.5-2.2,1.4-2.9v-0.2l-5.9-1.9l-0.1,0l-0.1,0
	c-0.7,1.2-1.2,2.6-1.4,4.1l0.1,0L18.6,26.7z"/>
<path class="st2" d="M24.7,28.9c0-0.1,0-0.1-0.1-0.2c0,0,0,0,0,0l0,0l-0.1,0.1L20.8,34l-2,2.8l-2.2,3.1L16.5,40l-0.1,0.1
	c1.1,1,2.2,1.9,3.5,2.6l0.1-0.1l0.1-0.1l2.2-3.1l2-2.8l3.8-5.2L28,31.3C26.5,31.2,25.3,30.2,24.7,28.9z"/>
<path class="st2" d="M37.5,36.6L35.7,34l-3.8-5.2l-0.2,0.1c-0.5,1.3-1.8,2.3-3.2,2.4c-0.1,0-0.1,0-0.2,0c0,0,0,0,0,0l0,0l0.1,0.1
	l3.8,5.2l1.8,2.5l0.1,0.1l0.1,0.1c1.3-0.7,2.5-1.5,3.5-2.6l-0.1-0.1L37.5,36.6z"/>
<path class="st2" d="M36.8,22.4l-0.1,0l-0.1,0l-5.9,1.9v0.2c0.8,0.7,1.4,1.7,1.4,2.9c0,0.3-0.1,0.6-0.1,0.9c0,0.1,0,0.1,0,0.2
	c0,0,0,0,0,0l0,0l0.1,0l5.9-1.9l0.1,0l0.1,0C38,25.1,37.5,23.7,36.8,22.4z"/>
<path class="st2" d="M30.4,24.4C30.4,24.4,30.4,24.4,30.4,24.4L30.4,24.4l0-0.1v-6.4v-3.1v-0.1v-0.1c-0.7-0.1-1.4-0.2-2.2-0.2
	s-1.5,0.1-2.2,0.2v0.1v0.1v3.1v6.4v0.1v0c0,0,0,0,0,0c0,0,0.1-0.1,0.1-0.1c0.6-0.4,1.3-0.6,2-0.6c0.7,0,1.4,0.2,2,0.6
	C30.3,24.3,30.3,24.3,30.4,24.4z"/>
</svg>
