<?xml version="1.0" encoding="utf-8"?>
<!-- Generator: Adobe Illustrator 26.2.1, SVG Export Plug-In . SVG Version: 6.00 Build 0)  -->
<svg version="1.1" id="Layer_1" xmlns="http://www.w3.org/2000/svg" xmlns:xlink="http://www.w3.org/1999/xlink" x="0px" y="0px"
	 viewBox="0 0 320 160" style="enable-background:new 0 0 320 160;" xml:space="preserve">
<style type="text/css">
	.st0{fill:none;stroke:#D3D3D3;stroke-width:0.6838;}
	.st1{fill:none;stroke:#000000;stroke-width:0.6838;}
	.st2{font-family:'ArialMT';}
	.st3{font-size:6.8381px;}
	.st4{fill:#9E0142;}
	.st5{fill:#FBF8B0;}
	.st6{fill:#5E4FA2;}
</style>
<g transform="translate(250,175)">
	<g transform="translate(20,20)">
		<g id="axes">
			<circle id="r150" class="st0" cx="-193.4" cy="-112.7" r="13.7"/>
			<circle id="r100" class="st0" cx="-193.4" cy="-112.7" r="39.7"/>
			<circle id="r50" class="st0" cx="-193.4" cy="-112.7" r="66.3"/>
			<g id="y_axis" transform="translate(0, -155)">
				<path class="st1" d="M-193.1-24v53h-4.4"/>
				<g transform="translate(0,20.5)">
					<path class="st1" d="M-193.4-44.5"/>
				</g>
				<g transform="translate(0,58.5)">
					<line class="st1" x1="-193.4" y1="-82.2" x2="-197.5" y2="-82.2"/>
					<text transform="matrix(1 0 0 1 -210.9707 -79.9619)" class="st2 st3">100</text>
				</g>
				<g transform="translate(0,97.5)">
					<line class="st1" x1="-193.4" y1="-94.5" x2="-197.5" y2="-94.5"/>
					<text transform="matrix(1 0 0 1 -207.167 -92.2939)" class="st2 st3">50</text>
				</g>
				<g transform="translate(0,135.5)">
					<line class="st1" x1="-193.4" y1="-106.5" x2="-197.5" y2="-106.5"/>
					<text transform="matrix(1 0 0 1 -203.3652 -104.3076)" class="st2 st3">0</text>
				</g>
			</g>
		</g>
		<g id="value1">
			<path class="st4" d="M-193.4-126.3c2.4,0,4.8,0.6,6.8,1.8l-4.3,16.2l6.1-22.9c-2.2-1-4.5-1.6-6.8-1.8l-4.3,16.1L-193.4-126.3z"/>
			<path class="st4" d="M-186.6-124.5c2.1,1.2,3.8,2.9,5,5l-11.8,11.8l17.3-17.3c-1.4-1.9-3.1-3.6-5-5l-12.3,12.3L-186.6-124.5z"/>
			<path class="st4" d="M-181.6-119.5c1.2,2.1,1.8,4.4,1.8,6.8l-16.2,4.3l21.6-5.8c-0.2-2.4-0.8-4.7-1.8-6.8l-14.8,4L-181.6-119.5z"
				/>
			<path class="st4" d="M-179.7-112.7c0,2.4-0.6,4.8-1.8,6.8l-16.2-4.3l26.3,7c0.9-2.2,1.6-4.5,1.8-6.8l-19.4-5.2L-179.7-112.7z"/>
			<path class="st4" d="M-181.6-105.8c-1.2,2.1-2.9,3.8-5,5l-11.8-11.8l19.2,19.2c1.9-1.4,3.6-3.1,5-5l-14.2-14.2L-181.6-105.8z"/>
			<path class="st4" d="M-186.6-100.8c-2.1,1.2-4.4,1.8-6.8,1.8l-4.3-16.2l6.9,25.6c2.4-0.3,4.7-0.9,6.8-1.8l-5-18.8L-186.6-100.8z"
				/>
			<path class="st4" d="M-193.4-99c-2.4,0-4.8-0.6-6.8-1.8l4.3-16.2l-7,26.3c2.2,0.9,4.5,1.6,6.8,1.8l5.2-19.4L-193.4-99z"/>
			<path class="st4" d="M-200.2-100.8c-2.1-1.2-3.8-2.9-5-5l11.8-11.8l-17.8,17.8c1.4,1.9,3.1,3.6,5,5l12.8-12.8L-200.2-100.8z"/>
			<path class="st4" d="M-205.3-105.8c-1.2-2.1-1.8-4.4-1.8-6.8l16.2-4.3l-30.9,8.3c0.3,2.3,0.9,4.6,1.8,6.8l24.1-6.5L-205.3-105.8z
				"/>
			<path class="st4" d="M-207.1-112.7c0-2.4,0.6-4.8,1.8-6.8l16.2,4.3l-30.3-8.1c-0.9,2.2-1.5,4.5-1.8,6.8l23.4,6.3L-207.1-112.7z"
				/>
			<path class="st4" d="M-205.3-119.5c1.2-2.1,2.9-3.8,5-5l11.8,11.8l-15.8-15.8c-2,1.3-3.7,3-5,5l10.8,10.8L-205.3-119.5z"/>
			<path class="st4" d="M-200.2-124.5c2.1-1.2,4.4-1.8,6.8-1.8l4.3,16.2l-8.1-30.3c-2.3,0.3-4.6,0.9-6.8,1.8l6.3,23.4L-200.2-124.5z
				"/>
		</g>
		<g id="value2">
			<path class="st5" d="M-191.6-133.1c2.4,0.2,4.7,0.8,6.8,1.8l-6.1,22.9l8.8-32.9c-2.2-0.9-4.5-1.5-6.8-1.8l-7,26.1L-191.6-133.1z"
				/>
			<path class="st5" d="M-181.1-129.9c1.9,1.4,3.6,3.1,5,5l-17.3,17.3l23.6-23.6c-1.5-1.9-3.1-3.5-5-5l-18.6,18.6L-181.1-129.9z"/>
			<path class="st5" d="M-176.1-121c1,2.1,1.7,4.5,1.8,6.8l-21.6,5.8l32.9-8.8c-0.3-2.3-1-4.6-1.8-6.8l-26.1,7L-176.1-121z"/>
			<path class="st5" d="M-169.6-110c-0.3,2.4-0.9,4.7-1.8,6.8l-26.3-7l34.9,9.4c0.9-2.2,1.5-4.5,1.8-6.8l-28.1-7.5L-169.6-110z"/>
			<path class="st5" d="M-174.2-98.4c-1.4,1.9-3.1,3.6-5,5l-19.2-19.2l26.5,26.5c1.8-1.5,3.5-3.2,5-5l-21.5-21.5L-174.2-98.4z"/>
			<path class="st5" d="M-184-91.4c-2.2,1-4.5,1.6-6.8,1.8l-6.9-25.6l10.3,38.3c2.3-0.4,4.6-1,6.8-1.8l-8.4-31.4L-184-91.4z"/>
			<path class="st5" d="M-196.1-88.9c-2.4-0.3-4.7-0.9-6.8-1.8l7-26.3l-9.7,36.3c2.2,0.8,4.5,1.5,6.8,1.8l7.9-29.4L-196.1-88.9z"/>
			<path class="st5" d="M-206.2-94.9c-1.9-1.4-3.6-3.1-5-5l17.8-17.8l-24.1,24.1c1.5,1.9,3.2,3.5,5,5l19.1-19.1L-206.2-94.9z"/>
			<path class="st5" d="M-220-101.9c-0.9-2.2-1.5-4.5-1.8-6.8l30.9-8.3l-40.9,11c0.4,2.3,1,4.6,1.8,6.8l34.1-9.1L-220-101.9z"/>
			<path class="st5" d="M-221.2-116.4c0.3-2.3,0.9-4.6,1.8-6.8l30.3,8.1l-38.3-10.3c-0.8,2.2-1.4,4.5-1.8,6.8l31.4,8.4L-221.2-116.4
				z"/>
			<path class="st5" d="M-209.2-123.5c1.3-2,3-3.7,5-5l15.8,15.8l-25.1-25.1c-1.8,1.5-3.5,3.2-5,5l20.1,20.1L-209.2-123.5z"/>
			<path class="st5" d="M-204-138.6c2.2-0.9,4.5-1.5,6.8-1.8l8.1,30.3l-10.6-39.6c-2.3,0.4-4.6,1-6.8,1.8l8.8,32.7L-204-138.6z"/>
		</g>
		<g id="value3">
			<path class="st6" d="M-188.9-143.1c2.3,0.3,4.6,1,6.8,1.8l-8.8,32.9l12.2-45.6c-2.2-0.8-4.5-1.4-6.8-1.8l-10.4,38.7L-188.9-143.1
				z"/>
			<path class="st6" d="M-174.8-136.3c1.9,1.5,3.5,3.1,5,5l-23.6,23.6l33.3-33.3c-1.5-1.8-3.2-3.5-5-5l-28.3,28.3L-174.8-136.3z"/>
			<path class="st6" d="M-164.8-124c0.9,2.2,1.5,4.5,1.8,6.8l-32.9,8.8l45.6-12.2c-0.4-2.3-1-4.6-1.8-6.8l-38.7,10.4L-164.8-124z"/>
			<path class="st6" d="M-161-107.6c-0.4,2.3-1,4.6-1.8,6.8l-34.9-9.4l50.2,13.4c0.8-2.2,1.4-4.5,1.8-6.8l-43.4-11.6L-161-107.6z"/>
			<path class="st6" d="M-166.9-91.1c-1.5,1.8-3.2,3.5-5,5l-26.5-26.5l37.2,37.2c1.8-1.5,3.5-3.2,5-5l-32.2-32.2L-166.9-91.1z"/>
			<path class="st6" d="M-180.7-78.7c-2.2,0.8-4.5,1.4-6.8,1.8l-10.3-38.3l12,44.9c2.3-0.4,4.6-1,6.8-1.8l-10.2-38.1L-180.7-78.7z"
				/>
			<path class="st6" d="M-198.8-78.9c-2.3-0.4-4.6-1-6.8-1.8l9.7-36.3l-13.4,50.2c2.2,0.8,4.5,1.4,6.8,1.8l11.6-43.4L-198.8-78.9z"
				/>
			<path class="st6" d="M-212.5-88.5c-1.9-1.5-3.5-3.2-5-5l24.1-24.1l-29,29c1.5,1.8,3.2,3.5,5,5l24-24L-212.5-88.5z"/>
			<path class="st6" d="M-230-99.2c-0.8-2.2-1.4-4.5-1.8-6.8l40.9-11l-54.2,14.5c0.5,2.3,1.1,4.6,1.8,6.8l47.3-12.7L-230-99.2z"/>
			<path class="st6" d="M-229.2-118.6c0.4-2.3,1-4.6,1.8-6.8l38.3,10.3l-50.2-13.4c-0.8,2.2-1.4,4.5-1.8,6.8l43.4,11.6L-229.2-118.6
				z"/>
			<path class="st6" d="M-218.5-132.7c1.5-1.8,3.2-3.5,5-5l25.1,25.1l-32.9-32.9c-1.8,1.5-3.5,3.2-5,5l27.9,27.9L-218.5-132.7z"/>
			<path class="st6" d="M-206.5-147.9c2.2-0.8,4.5-1.4,6.8-1.8l10.6,39.6l-14.7-54.8c-2.3,0.5-4.6,1.1-6.8,1.8l12.9,48L-206.5-147.9
				z"/>
		</g>
	</g>
</g>
<g transform="translate(750,175)">
	<g transform="translate(20,20)">
		<g id="axes_00000158742877797317608580000015233028400165623457_">
			<circle id="r150_00000134962787323866440440000008845619120168999600_" class="st0" cx="-523" cy="-112.7" r="13.7"/>
			<circle id="r100_00000132806191051054947810000002934888812212491394_" class="st0" cx="-523" cy="-112.7" r="39.7"/>
			<circle id="r50_00000067231917127175487570000013487534153561832844_" class="st0" cx="-523" cy="-112.7" r="66.3"/>
			<g id="y_axis_00000018225763532529189420000001793926863986768314_" transform="translate(0, -155)">
				<path class="st1" d="M-522.7-24v53h-4.4"/>
				<g transform="translate(0,20.5)">
					<path class="st1" d="M-523-44.5"/>
				</g>
				<g transform="translate(0,58.5)">
					<line class="st1" x1="-523" y1="-82.2" x2="-527.1" y2="-82.2"/>
					<text transform="matrix(1 0 0 1 -540.5605 -79.9619)" class="st2 st3">100</text>
				</g>
				<g transform="translate(0,97.5)">
					<line class="st1" x1="-523" y1="-94.5" x2="-527.1" y2="-94.5"/>
					<text transform="matrix(1 0 0 1 -536.7549 -92.2939)" class="st2 st3">50</text>
				</g>
				<g transform="translate(0,135.5)">
					<line class="st1" x1="-523" y1="-106.5" x2="-527.1" y2="-106.5"/>
					<text transform="matrix(1 0 0 1 -532.9541 -104.3076)" class="st2 st3">0</text>
				</g>
			</g>
		</g>
		<g id="value1_00000047026511491266985510000016161709113619419536_">
			<path class="st4" d="M-523-126.3c2.4,0,4.8,0.6,6.8,1.8l-4.3,16.2l4.5-16.9c-2.1-1.2-4.4-1.8-6.8-1.8l-2.7,10L-523-126.3z"/>
			<path class="st4" d="M-516.2-124.5c2.1,1.2,3.8,2.9,5,5l-11.8,11.8l12.8-12.8c-1.2-2-3-3.8-5-5l-7.8,7.8L-516.2-124.5z"/>
			<path class="st4" d="M-511.2-119.5c1.2,2.1,1.8,4.4,1.8,6.8l-16.2,4.3l17.5-4.7c-0.1-2.4-0.7-4.7-1.8-6.8l-10.7,2.9L-511.2-119.5
				z"/>
			<path class="st4" d="M-509.3-112.7c0,2.4-0.6,4.8-1.8,6.8l-16.2-4.3l18.2,4.9c1.1-2.1,1.7-4.4,1.8-6.8l-11.4-3.1L-509.3-112.7z"
				/>
			<path class="st4" d="M-511.2-105.8c-1.2,2.1-2.9,3.8-5,5l-11.8-11.8l13.8,13.8c2-1.3,3.7-3,5-5l-8.8-8.8L-511.2-105.8z"/>
			<path class="st4" d="M-516.2-100.8c-2.1,1.2-4.4,1.8-6.8,1.8l-4.3-16.2l5.2,19.6c2.4-0.1,4.7-0.8,6.8-1.8l-3.4-12.7L-516.2-100.8
				z"/>
			<path class="st4" d="M-523-99c-2.4,0-4.8-0.6-6.8-1.8l4.3-16.2l-5.2,19.6c2.1,1.1,4.5,1.7,6.8,1.8l3.4-12.7L-523-99z"/>
			<path class="st4" d="M-529.8-100.8c-2.1-1.2-3.8-2.9-5-5l11.8-11.8l-14.8,14.8c1.3,2,3,3.7,5,5l9.8-9.8L-529.8-100.8z"/>
			<path class="st4" d="M-534.8-105.8c-1.2-2.1-1.8-4.4-1.8-6.8l16.2-4.3l-20.9,5.6c0.2,2.4,0.8,4.7,1.8,6.8l14.1-3.8L-534.8-105.8z
				"/>
			<path class="st4" d="M-536.7-112.7c0-2.4,0.6-4.8,1.8-6.8l16.2,4.3l-21.6-5.8c-1,2.1-1.7,4.5-1.8,6.8l14.8,4L-536.7-112.7z"/>
			<path class="st4" d="M-534.8-119.5c1.2-2.1,2.9-3.8,5-5l11.8,11.8l-11.8-11.8C-531.9-123.3-533.6-121.6-534.8-119.5l6.8,6.8
				L-534.8-119.5z"/>
			<path class="st4" d="M-529.8-124.5c2.1-1.2,4.4-1.8,6.8-1.8l4.3,16.2l-11.1-41.6c-2.3,0.4-4.6,1-6.8,1.8l9.3,34.7L-529.8-124.5z"
				/>
		</g>
		<g id="value2_00000139277710107675385340000010264904385975873154_">
			<path class="st5" d="M-522.8-127c2.4,0,4.7,0.7,6.8,1.8l-4.5,16.9l4.7-17.5c-2.1-1.1-4.4-1.8-6.8-1.8l-2.9,10.7L-522.8-127z"/>
			<path class="st5" d="M-515.2-125.5c2,1.2,3.8,3,5,5l-12.8,12.8l13.3-13.3c-1.3-2-3-3.7-5-5l-8.3,8.3L-515.2-125.5z"/>
			<path class="st5" d="M-509.8-119.9c1.1,2.1,1.8,4.4,1.8,6.8l-17.5,4.7l19.6-5.2c-0.1-2.4-0.8-4.7-1.8-6.8l-12.7,3.4L-509.8-119.9
				z"/>
			<path class="st5" d="M-507.3-112.1c-0.1,2.4-0.7,4.7-1.8,6.8l-18.2-4.9l20.2,5.4c1.1-2.1,1.7-4.5,1.8-6.8l-13.4-3.6L-507.3-112.1
				z"/>
			<path class="st5" d="M-509.2-103.8c-1.3,2-3,3.7-5,5l-13.8-13.8l15.8,15.8c2-1.3,3.7-3,5-5l-10.8-10.8L-509.2-103.8z"/>
			<path class="st5" d="M-515.2-97.4c-2.1,1.1-4.5,1.7-6.8,1.8l-5.2-19.6l6,22.3c2.4-0.2,4.7-0.8,6.8-1.8l-4.1-15.4L-515.2-97.4z"/>
			<path class="st5" d="M-523.9-95.6c-2.4-0.1-4.7-0.8-6.8-1.8l5.2-19.6l-6.3,23.6c2.2,1,4.5,1.6,6.8,1.8l4.5-16.8L-523.9-95.6z"/>
			<path class="st5" d="M-532.8-97.8c-2-1.3-3.7-3-5-5l14.8-14.8l-17.8,17.8c1.4,1.9,3.1,3.6,5,5l12.8-12.8L-532.8-97.8z"/>
			<path class="st5" d="M-539.6-104.6c-1-2.1-1.7-4.5-1.8-6.8l20.9-5.6l-25.6,6.9c0.3,2.4,0.9,4.7,1.8,6.8l18.8-5L-539.6-104.6z"/>
			<path class="st5" d="M-542.1-114.1c0.2-2.4,0.8-4.7,1.8-6.8l21.6,5.8l-26.3-7c-0.9,2.2-1.6,4.5-1.8,6.8l19.4,5.2L-542.1-114.1z"
				/>
			<path class="st5" d="M-534.8-119.5c1.2-2.1,2.9-3.8,5-5l11.8,11.8l-49.3-49.3c-1.8,1.6-3.4,3.2-5,5l44.3,44.3L-534.8-119.5z"/>
			<path class="st5" d="M-536.6-149.9c2.2-0.8,4.5-1.4,6.8-1.8l11.1,41.6l-11.1-41.6C-532.1-151.3-534.4-150.7-536.6-149.9l9.3,34.7
				L-536.6-149.9z"/>
		</g>
		<g id="value3_00000140732088366399880370000015255196234248235937_">
			<path class="st6" d="M-522.6-127.7c2.4,0.1,4.7,0.7,6.8,1.8l-4.7,17.5l4.7-17.5C-517.9-127-520.2-127.6-522.6-127.7l-2.9,10.7
				L-522.6-127.7z"/>
			<path class="st6" d="M-514.7-126c2,1.3,3.7,3,5,5l-13.3,13.3l14.3-14.3c-1.3-2-3-3.7-5-5l-9.3,9.3L-514.7-126z"/>
			<path class="st6" d="M-507.8-120.4c1.1,2.1,1.7,4.5,1.8,6.8l-19.6,5.2l20.9-5.6c-0.2-2.4-0.8-4.7-1.8-6.8l-14.1,3.8L-507.8-120.4
				z"/>
			<path class="st6" d="M-505.3-111.6c-0.1,2.4-0.8,4.7-1.8,6.8l-20.2-5.4l22.3,6c1-2.2,1.6-4.5,1.8-6.8l-15.4-4.1L-505.3-111.6z"/>
			<path class="st6" d="M-507.2-101.9c-1.3,2-3,3.7-5,5l-15.8-15.8l17.8,17.8c1.9-1.4,3.6-3.1,5-5l-12.8-12.8L-507.2-101.9z"/>
			<path class="st6" d="M-514.5-94.7c-2.2,1-4.5,1.6-6.8,1.8l-6-22.3l6.9,25.6c2.4-0.3,4.7-0.9,6.8-1.8l-5-18.8L-514.5-94.7z"/>
			<path class="st6" d="M-525-91.6c-2.4-0.2-4.7-0.8-6.8-1.8l6.3-23.6l-7.2,27c2.2,0.9,4.5,1.6,6.8,1.8l5.4-20.1L-525-91.6z"/>
			<path class="st6" d="M-535.8-94.9c-1.9-1.4-3.6-3.1-5-5l17.8-17.8L-543.7-97c1.4,1.9,3.1,3.6,5,5l15.7-15.7L-535.8-94.9z"/>
			<path class="st6" d="M-544.3-103.3c-1-2.2-1.6-4.5-1.8-6.8l25.6-6.9l-30.3,8.1c0.3,2.3,0.9,4.6,1.8,6.8l23.4-6.3L-544.3-103.3z"
				/>
			<path class="st6" d="M-546.8-115.4c0.3-2.4,0.9-4.7,1.8-6.8l26.3,7l-31.6-8.5c-0.9,2.2-1.5,4.5-1.8,6.8l24.8,6.6L-546.8-115.4z"
				/>
			<path class="st6" d="M-572.3-157c1.6-1.8,3.2-3.4,5-5l49.3,49.3l-49.3-49.3C-569.1-160.4-570.8-158.8-572.3-157l44.3,44.3
				L-572.3-157z"/>
			<path class="st6" d="M-536.6-149.9c2.2-0.8,4.5-1.4,6.8-1.8l11.1,41.6l-11.1-41.6C-532.1-151.3-534.4-150.7-536.6-149.9l9.3,34.7
				L-536.6-149.9z"/>
		</g>
	</g>
</g>
</svg>
